# xmcd CD database generated by RipIT
#
# Track frame offsets:
# 182
# 12295
# 21980
# 30777
# 40325
# 51297
# 64407
# 73375
# 84557
# 98925
# 107945
# 117082
# 128235
# 138810
# 147522
# 159315
# 165835
# 174585
# 184542
# 197217
# 207230
# 223917
#
# Disc length: 3140 seconds
#
# Revision: 1
# Processed by: cddbd v1.5.2PL0 Copyright (c) Steve Scherf et al.
# Submitted via: RipIT 3.6.0 www.suwald.com/ripit/ripit.html on 2009-03-19 at 22:14
#
DISCID=3f0c4216
DTITLE=Various Artist - Shaggerman Rock'n'roll
DYEAR=1900
DGENRE=Rock
TTITLE0=Tommy Bell-Midnight Dreams
TTITLE1=The Dazzlers-Something Baby
TTITLE2=The Val Rays-Hopped Up Mustang
TTITLE3=The Twisters-Countdown 1-2-3
TTITLE4=The Fender Four-Margaya
TTITLE5=Benny Joy-Wild Lover
TTITLE6=The Bongo Teens-Surfin' Bongos
TTITLE7=Terry Stafford-Suspicion
TTITLE8=Doug Powell-Jeannie With The Dark Blue Eyes
TTITLE9=Little Montie Jones-Your Just That Kind
TTITLE10=The Corvettes-Shaften
TTITLE11=The Blue Echoes-It's Witchcraft Rock'n'roll
TTITLE12=The Demotrons-Rockaway Special
TTITLE13=The Loafers-Crazy Talk
TTITLE14=Link Wray-Comanche
TTITLE15=Eddie Quinteros-Lindy Lou
TTITLE16=The Fireflies-Stella Gotta Fella
TTITLE17=Weyman Parham-Hangloose
TTITLE18=Doug Sahm-Slow Down
TTITLE19=John And Jackie-Little Girl
TTITLE20=Tony Joe White-Pork Salad Annie
TTITLE21=Ted Weems And His Orchestra-Heartaches
EXTD=
EXTT0=
EXTT1=
EXTT2=
EXTT3=
EXTT4=
EXTT5=
EXTT6=
EXTT7=
EXTT8=
EXTT9=
EXTT10=
EXTT11=
EXTT12=
EXTT13=
EXTT14=
EXTT15=
EXTT16=
EXTT17=
EXTT18=
EXTT19=
EXTT20=
EXTT21=
PLAYORDER=
